<svg width="71" height="71" viewBox="0 0 71 71" fill="none" xmlns="http://www.w3.org/2000/svg">
<path d="M35.5 0C15.9024 0 0 15.9024 0 35.5C0 55.0976 15.9024 71 35.5 71C55.0976 71 71 55.0976 71 35.5C71 15.9024 55.116 0 35.5 0ZM53.2776 46.2732C53.204 46.696 53.1305 47.1189 53.0386 47.5233C52.6157 48.994 51.9355 50.3545 51.0899 51.623C51.0715 51.6598 51.0715 51.6965 51.0531 51.7333C51.0163 51.7517 50.9795 51.7885 50.9795 51.8436C50.9612 51.862 50.9428 51.8804 50.9428 51.8988C50.8876 51.9539 50.8509 51.9907 50.8325 52.0642C50.8141 52.0826 50.7957 52.101 50.7773 52.1194C50.042 53.1489 49.2147 54.1233 48.3874 55.0792C48.369 55.116 48.3506 55.1528 48.3138 55.1712C48.2954 55.2079 48.2771 55.2263 48.2403 55.2447C48.2219 55.2815 48.2035 55.2998 48.1668 55.3182C48.1484 55.355 48.1116 55.3734 48.0932 55.4102C48.0748 55.4469 48.0381 55.4653 48.0197 55.5021C48.0013 55.5388 47.9645 55.5572 47.9461 55.5756C47.9278 55.6124 47.891 55.6308 47.8726 55.6491C47.8542 55.6859 47.8175 55.7043 47.7991 55.7227C47.7807 55.7411 47.7439 55.7778 47.7255 55.7962C47.7071 55.8146 47.6704 55.8514 47.652 55.8698C47.6336 55.8881 47.5968 55.9249 47.5785 55.9433C47.5601 55.9617 47.5233 55.9984 47.5049 56.0168C47.4865 56.0352 47.4498 56.072 47.4314 56.0904C47.413 56.1088 47.3762 56.1455 47.3578 56.1639C47.3395 56.1823 47.3027 56.2191 47.2843 56.2374C46.8063 56.6787 46.3283 57.1199 45.832 57.5427C44.2141 58.9399 42.3573 59.8959 40.3718 60.6129C39.5445 60.907 38.7172 61.146 37.8532 61.3299C37.798 61.3483 37.7613 61.3666 37.7061 61.385H37.6693L37.6326 61.4034C37.5407 61.477 37.412 61.4034 37.32 61.477C37.1914 61.5689 37.0443 61.477 36.9156 61.5505H36.8788L36.8421 61.5689C36.7134 61.6608 36.5663 61.5505 36.4376 61.6424H36.4008L36.3641 61.6608C36.217 61.7527 36.0331 61.6424 35.8861 61.7343C35.5 61.716 35.1323 61.8079 34.7646 61.8263C34.1028 61.863 33.441 61.8814 32.7791 61.8998C31.4738 61.8079 30.187 61.6608 28.9184 61.3483C28.5691 61.2563 28.2015 61.1828 27.8521 61.0909C27.1168 60.8151 26.3446 60.5945 25.6277 60.2452C25.3887 60.1349 25.1313 60.0246 24.8739 59.9143C24.8187 59.8775 24.7452 59.8959 24.7084 59.8224C24.304 59.5834 23.8812 59.3444 23.4767 59.1054C23.4399 59.087 23.4032 59.0686 23.3848 59.0319C23.0171 58.7745 22.6494 58.5171 22.2817 58.2597C22.245 58.2046 22.1714 58.2229 22.153 58.1678C22.1163 58.1494 22.0795 58.1126 22.0611 58.0943C21.767 57.8185 21.4728 57.5427 21.1419 57.3037C21.1051 57.2853 21.0684 57.267 21.05 57.2302C21.0132 57.2118 20.9948 57.1934 20.9764 57.1567C20.9397 57.1383 20.9213 57.1199 20.9029 57.0831C20.8661 57.0647 20.8477 57.0464 20.8294 57.0096C20.7926 56.9912 20.7742 56.9728 20.7558 56.936C20.7191 56.9177 20.7007 56.8993 20.6823 56.8625C20.6455 56.8441 20.6271 56.8257 20.6088 56.789C20.572 56.7706 20.5352 56.7338 20.5352 56.6971C20.4984 56.6235 20.4433 56.5684 20.3881 56.5316C20.0021 56.072 19.5976 55.6124 19.2115 55.1528C19.1932 55.116 19.1564 55.0976 19.138 55.0609C19.0645 55.0057 19.0277 54.8954 18.9726 54.8219C18.66 54.3439 18.3475 53.8843 18.035 53.4063C17.9798 53.3695 17.9982 53.296 17.943 53.2592C17.7224 52.818 17.5018 52.3951 17.2444 51.9907C17.0606 51.6046 16.8216 51.0715 16.5458 50.428C16.2885 49.8213 15.9759 49.086 15.7185 48.3138C15.3876 47.2843 15.2589 46.5122 15.0199 45.0047C14.8912 44.1958 14.7626 43.1111 14.6523 41.8426C14.6339 40.666 14.5971 39.471 14.6339 38.2944C14.5787 37.6326 14.6339 36.934 14.7074 36.217C14.7074 36.0699 14.7074 35.9412 14.7074 35.7941C14.7993 35.1323 14.9096 34.4521 15.0016 33.7903C15.2405 32.3011 15.5898 30.8304 16.0495 29.3964C16.0678 29.3045 16.0862 29.2126 16.123 29.139C16.1414 29.1207 16.1414 29.1023 16.1414 29.0839C16.1781 29.0287 16.1781 28.9736 16.1965 28.9184C16.362 28.4588 16.5458 27.9992 16.7113 27.5396C17.226 26.1976 17.8511 24.9107 18.5497 23.6789C18.6049 23.587 18.6968 23.4951 18.6968 23.3664C19.0645 22.8149 19.4138 22.245 19.7815 21.7118C21.767 18.8071 24.2305 16.362 27.0984 14.3397C29.6538 12.5381 32.5034 11.435 35.5552 10.8467C36.5847 10.6445 37.6142 10.5526 38.6621 10.4423C39.5445 10.4055 40.427 10.3871 41.3278 10.4423C41.4565 10.4606 41.5668 10.479 41.6955 10.4606C42.1919 10.5342 42.6882 10.5893 43.1846 10.6629C44.7473 10.8835 46.2548 11.3247 47.6704 12.0417C47.7071 12.0601 47.7623 12.0785 47.8175 12.0968C48.369 12.4461 48.9573 12.7771 49.4537 13.2183C50.5383 14.1559 51.3656 15.2773 51.8988 16.601C51.9355 16.6929 51.9539 16.8032 52.0274 16.8767C52.1561 17.4283 52.34 17.9614 52.4319 18.5313C52.6893 20.1124 52.5606 21.6567 52.1561 23.2009C52.1378 23.2929 52.101 23.4032 52.101 23.5135C52.0826 23.5686 52.0826 23.6422 52.0458 23.6973C52.0274 23.7157 52.0274 23.7341 52.0274 23.7525C51.9907 23.8076 52.0091 23.8812 51.9539 23.9363C51.9355 23.9547 51.9355 23.9731 51.9355 23.9915C51.8988 24.0466 51.9171 24.1201 51.862 24.1753C51.8436 24.1937 51.8436 24.2121 51.8436 24.2305C51.5862 24.7636 51.3656 25.3151 51.0347 25.8299C50.4464 26.7123 49.7478 27.4845 48.9573 28.1831C48.847 28.275 48.7551 28.3669 48.6447 28.4772C48.6264 28.514 48.5896 28.5508 48.5528 28.5691C48.2771 28.753 48.0013 28.9368 47.7071 29.1207C47.2292 29.4148 46.7144 29.6354 46.1996 29.8193C46.1813 29.856 46.1445 29.8744 46.1077 29.8928C45.9974 29.9296 45.8871 29.948 45.7768 29.9847C45.74 30.0031 45.7033 30.0031 45.6481 30.0031C45.3907 30.0031 45.1334 30.0215 44.876 30.0031C44.7289 29.9847 44.6002 29.948 44.4531 29.8928C43.8281 29.6906 43.5891 29.378 43.5891 28.7346C43.5891 28.6427 43.5891 28.5508 43.5891 28.4588C43.7361 27.6315 44.0671 26.8962 44.4715 26.1792C44.9311 25.3519 45.2988 24.5062 45.5746 23.6054C45.9239 22.5575 46.1996 21.4912 46.1445 20.3698C46.1077 19.377 45.8871 18.421 45.5378 17.4834C45.5194 17.4467 45.5194 17.4099 45.501 17.3731C45.4827 17.318 45.4643 17.2628 45.4459 17.226C45.4275 17.1893 45.4091 17.1709 45.3907 17.1341C45.354 17.0606 45.3172 17.0054 45.2804 16.9503C44.2509 15.0751 42.5779 14.3213 40.5373 14.211C37.8532 14.0823 35.5 15.0016 33.2939 16.4171C30.334 18.3107 28.1279 20.8661 26.4366 23.9363C25.7196 25.26 25.168 26.6388 24.6533 28.0544C24.6165 28.1279 24.5798 28.2198 24.5614 28.2934C24.543 28.3301 24.543 28.3485 24.5246 28.3853C24.4878 28.4588 24.4878 28.5324 24.4694 28.6059C24.4694 28.6427 24.4511 28.6794 24.4511 28.6978C24.4327 28.7714 24.4143 28.8265 24.3959 28.9001C24.3959 28.9368 24.3775 28.9736 24.3591 29.0104C23.9179 30.5363 23.5686 32.0621 23.3112 33.6248C23.2745 33.7351 23.2561 33.8454 23.2561 33.9741C23.2561 34.0293 23.2377 34.0844 23.2193 34.1396C23.1825 34.2683 23.1826 34.3969 23.1642 34.5256C23.1642 34.5808 23.1458 34.6359 23.1458 34.6911C23.109 34.8198 23.109 34.9485 23.109 35.0772C23.109 35.1507 23.0906 35.2426 23.0722 35.3162C23.0171 35.4816 23.0355 35.6471 23.0171 35.7941C23.0171 35.8677 22.9987 35.9228 22.9803 35.9964C22.9068 36.6766 22.8884 37.3752 22.8332 38.0738C22.7413 39.471 22.8149 40.5189 22.8149 40.8314C22.8332 41.4749 22.87 42.4676 23.0539 43.7545C23.1642 44.5267 23.3296 45.501 23.587 46.6041C23.6422 46.8799 23.7157 47.1556 23.7892 47.4682C23.8811 47.7623 23.9731 48.0381 24.0834 48.3138C24.0834 48.369 24.0834 48.4241 24.1385 48.4793C24.1569 48.4977 24.1753 48.5161 24.1569 48.5161C24.1569 48.5344 24.1569 48.5528 24.1569 48.5528C24.2856 48.994 24.4511 49.4169 24.6717 49.8213C24.6901 49.8397 24.6901 49.8765 24.7084 49.8949C24.7452 49.9316 24.7268 50.0052 24.782 50.0419C24.8187 50.0787 24.8187 50.1523 24.8555 50.2074C25.0761 50.7589 25.3703 51.2737 25.7196 51.7701C26.0321 52.34 26.4366 52.8547 26.8962 53.3327C26.9881 53.4982 27.1168 53.6269 27.2822 53.7372C27.319 53.7556 27.3374 53.7923 27.3558 53.8107C27.3925 53.8291 27.4109 53.8659 27.4293 53.8843C27.4661 53.9026 27.4845 53.9394 27.5028 53.9578C27.5396 53.9762 27.558 54.0129 27.5764 54.0313C27.6132 54.0497 27.6315 54.0865 27.6499 54.1049C27.6867 54.1233 27.7051 54.16 27.7235 54.1784C28.0544 54.5093 28.4037 54.8035 28.8265 55.0425C29.231 55.355 29.6722 55.6308 30.1502 55.8146C30.187 55.8514 30.2605 55.833 30.3156 55.8881C30.5546 56.0536 30.812 56.1455 31.0878 56.2191C31.1062 56.2191 31.1062 56.2191 31.1245 56.2191C31.1613 56.2191 31.1981 56.2374 31.2532 56.2374C31.2716 56.2374 31.3084 56.2558 31.3268 56.2742C31.3635 56.2926 31.4003 56.2926 31.4555 56.311C31.4922 56.311 31.5106 56.3294 31.529 56.3477C31.5842 56.3661 31.6393 56.3845 31.6945 56.4029C31.7312 56.4029 31.7496 56.4213 31.7864 56.4213C31.8415 56.4397 31.8967 56.4581 31.9702 56.4581C32.007 56.4581 32.0254 56.4764 32.0621 56.4764C32.1357 56.4948 32.2092 56.5132 32.3011 56.5316C32.3379 56.5316 32.3747 56.55 32.3931 56.55C32.4666 56.5684 32.5218 56.5867 32.5953 56.6051C32.8711 56.6603 33.1468 56.7338 33.4226 56.7522C33.4594 56.7522 33.4961 56.7706 33.5329 56.7706C33.6432 56.8074 33.7535 56.8257 33.8638 56.8257C33.9373 56.8257 34.0293 56.8441 34.1028 56.8625C34.2683 56.9177 34.4153 56.8993 34.5808 56.8993C34.7279 56.8993 34.8749 56.8993 35.022 56.936C35.4265 57.0096 35.8493 57.0096 36.2538 56.936C36.4008 56.8993 36.5479 56.8993 36.7134 56.8993C36.8237 56.8993 36.9156 56.8993 37.0259 56.8993C40.427 56.5132 43.2582 54.9322 45.832 52.7628C46.4754 52.2297 47.0453 51.6414 47.5968 50.9979C47.6336 50.9612 47.6704 50.9244 47.6888 50.8876C47.7071 50.8692 47.7255 50.8325 47.7439 50.8141C47.7623 50.7957 47.7807 50.7589 47.7991 50.7406C47.8175 50.7222 47.8175 50.7222 47.8358 50.7038C47.8542 50.6854 47.8726 50.667 47.891 50.6486C47.9094 50.6302 47.9094 50.6302 47.9278 50.6119C47.9461 50.5935 47.9645 50.5751 47.9829 50.5383C47.9829 50.5199 48.0013 50.5199 48.0013 50.5016C48.0197 50.4648 48.0381 50.428 48.0748 50.3729C48.0932 50.3361 48.1116 50.3177 48.13 50.2809C48.6631 49.564 49.1411 48.8286 49.6007 48.0748C49.6191 48.0381 49.6375 48.0197 49.6559 47.9829C49.6743 47.9645 49.6743 47.9461 49.6926 47.9461C49.7294 47.9094 49.7478 47.8542 49.7846 47.8175C49.803 47.7807 49.8213 47.7623 49.8397 47.7255C50.1706 47.1924 50.4832 46.6592 50.7957 46.1261C50.9795 45.8687 51.1266 45.593 51.2921 45.3172C51.3656 45.2069 51.4208 45.0598 51.5678 45.023C51.6414 44.9679 51.6965 44.8944 51.7149 44.7841C51.7333 44.7473 51.7517 44.7105 51.7885 44.6737C51.8436 44.637 51.8252 44.5634 51.8804 44.5267C51.8988 44.4899 51.9171 44.4531 51.9723 44.4347C52.0091 44.3796 52.0826 44.3796 52.1561 44.3612C52.3216 44.3796 52.5054 44.398 52.6709 44.4164C52.8364 44.5083 53.0018 44.6186 53.1305 44.7657C53.1489 45.0782 53.1857 45.3723 53.204 45.6849C53.204 45.7216 53.204 45.7768 53.204 45.8136C53.2592 45.9423 53.3143 46.1261 53.2776 46.2732Z" fill="white"/>
</svg>
