<svg width="74" height="75" viewBox="0 0 74 75" fill="none" xmlns="http://www.w3.org/2000/svg">
<path d="M14.5185 49.2593L29.1111 41.1111L29.3333 40.3704L29.1111 40H28.3704L25.9259 39.8519L17.6296 39.6296L10.3704 39.2593L3.33333 38.8889L1.55556 38.5185L0 36.2963L0.148148 35.1852L1.62963 34.2222L3.77778 34.3704L8.44445 34.7407L15.4815 35.1852L20.5926 35.4815L28.1482 36.3704H29.3333L29.4815 35.8519L29.1111 35.5556L28.8148 35.2593L21.4815 30.3704L13.6296 25.1852L9.48148 22.1481L7.25926 20.6667L6.14815 19.1852L5.7037 16.0741L7.7037 13.8519L10.4444 14.0741L11.1111 14.2222L13.8519 16.3704L19.7778 20.8889L27.4074 26.6667L28.5185 27.5556L28.963 27.2593L29.037 27.037L28.5185 26.2222L24.4444 18.5185L20 10.8148L18 7.62963L17.4815 5.7037C17.2593 4.96296 17.1852 4.22222 17.1852 3.48148L19.4074 0.37037L20.7407 0L23.8519 0.444444L25.037 1.48148L26.963 5.92593L30 12.8148L34.8148 22.1481L36.2963 24.963L37.037 27.4815L37.2593 28.2222H37.7778V27.8519L38.1482 22.5185L38.8889 16.0741L39.6296 7.77778L39.8519 5.40741L41.037 2.59259L43.2593 1.11111L45.1852 1.92593L46.6667 4.07407L46.4444 5.40741L45.6296 11.1111L43.7037 20.0741L42.5926 26.1481H43.2593L44 25.3333L47.037 21.3333L52.1482 14.963L54.3704 12.3704L57.037 9.62963L58.7407 8.2963H61.9259L64.2222 11.7778L63.1852 15.4074L59.9259 19.5556L57.1852 23.037L53.2593 28.2963L50.8889 32.5185L51.1111 32.8148H51.6296L60.5185 30.8889L65.2593 30.0741L70.8889 29.1111L73.4815 30.2963L73.7778 31.4815L72.7407 34L66.6667 35.4815L59.5556 36.963L48.963 39.4074L48.8148 39.4815L48.963 39.7037L53.7037 40.1481L55.7778 40.2963H60.8148L70.1482 41.037L72.5926 42.5185L74 44.5185L73.7778 46L70 47.9259L64.963 46.7407L53.1111 43.9259L49.1111 42.963H48.5185V43.2593L51.9259 46.5926L58.0741 52.1481L65.9259 59.3333L66.2963 61.1111L65.3333 62.5926L64.2963 62.4444L57.4815 57.2593L54.8148 55.037L48.8889 50H48.5185V50.5185L49.8519 52.5185L57.1111 63.4074L57.4815 66.7407L56.963 67.7778L55.037 68.5185L53.037 68.0741L48.7407 62.1482L44.2963 55.4815L40.8148 49.4074L40.4444 49.7037L38.2963 72.0741L37.3333 73.1852L35.1111 74.0741L33.2593 72.5926L32.2222 70.3704L33.2593 65.7778L34.4444 59.8518L35.4074 55.1111L36.2963 49.2593L36.8148 47.3333V47.1852H36.2963L31.8519 53.3333L25.1852 62.4444L19.8519 68.0741L18.5926 68.5926L16.3704 67.4815L16.5926 65.4074L17.7778 63.7037L25.1852 54.2222L29.6296 48.3704L32.5926 44.963L32.5185 44.5926H32.2963L12.7407 57.3333L9.25926 57.7778L7.77778 56.2963L7.92593 54.0741L8.66667 53.3333L14.5926 49.2593H14.5185Z" fill="white"/>
</svg>
