<svg width="83" height="83" viewBox="0 0 83 83" fill="none" xmlns="http://www.w3.org/2000/svg">
<path d="M52.4925 52.4919C58.577 52.4919 63.5095 47.5594 63.5095 41.4749C63.5095 35.3905 58.577 30.458 52.4925 30.458C46.408 30.458 41.4756 35.3905 41.4756 41.4749C41.4756 47.5594 46.408 52.4919 52.4925 52.4919Z" stroke="white" stroke-width="5.92507" stroke-linecap="round" stroke-linejoin="round"/>
<path d="M41.4753 30.4587V8.4248H30.4583C27.5365 8.4248 24.7343 9.58551 22.6682 11.6516C20.6021 13.7177 19.4414 16.5199 19.4414 19.4417C19.4414 22.3636 20.6021 25.1658 22.6682 27.2319C24.7343 29.298 27.5365 30.4587 30.4583 30.4587H41.4753Z" stroke="white" stroke-width="5.92507" stroke-linecap="round" stroke-linejoin="round"/>
<path d="M41.4753 52.4919V30.458H30.4583C27.5365 30.458 24.7343 31.6187 22.6682 33.6848C20.6021 35.7509 19.4414 38.5531 19.4414 41.4749C19.4414 44.3968 20.6021 47.199 22.6682 49.2651C24.7343 51.3312 27.5365 52.4919 30.4583 52.4919H41.4753Z" stroke="white" stroke-width="5.92507" stroke-linecap="round" stroke-linejoin="round"/>
<path d="M41.4756 30.4587V8.4248H52.4925C55.4144 8.4248 58.2166 9.58551 60.2827 11.6516C62.3487 13.7177 63.5095 16.5199 63.5095 19.4417C63.5095 22.3636 62.3487 25.1658 60.2827 27.2319C58.2166 29.298 55.4144 30.4587 52.4925 30.4587H41.4756Z" stroke="white" stroke-width="5.92507" stroke-linecap="round" stroke-linejoin="round"/>
<path d="M41.4753 52.4922V63.5091C41.4753 65.6881 40.8291 67.8181 39.6186 69.6298C38.408 71.4415 36.6874 72.8536 34.6743 73.6874C32.6613 74.5213 30.4461 74.7395 28.309 74.3144C26.172 73.8893 24.2089 72.84 22.6682 71.2993C21.1274 69.7585 20.0782 67.7955 19.6531 65.6584C19.228 63.5213 19.4462 61.3062 20.28 59.2931C21.1139 57.28 22.5259 55.5594 24.3377 54.3489C26.1494 53.1383 28.2794 52.4922 30.4583 52.4922H41.4753Z" stroke="white" stroke-width="5.92507" stroke-linecap="round" stroke-linejoin="round"/>
</svg>
