<svg width="72" height="72" viewBox="0 0 72 72" fill="none" xmlns="http://www.w3.org/2000/svg">
<path d="M53.75 0H17.9167C13.1649 0 8.6077 1.88764 5.24767 5.24767C1.88764 8.6077 0 13.1649 0 17.9167V53.75C0 58.5018 1.88764 63.059 5.24767 66.419C8.6077 69.779 13.1649 71.6667 17.9167 71.6667H53.75C58.5018 71.6667 63.059 69.779 66.419 66.419C69.779 63.059 71.6667 58.5018 71.6667 53.75V17.9167C71.6667 13.1649 69.779 8.6077 66.419 5.24767C63.059 1.88764 58.5018 0 53.75 0ZM44.7558 52.9617H39.1658C38.9429 52.9926 38.7166 52.9349 38.5357 52.8009C38.3549 52.6669 38.2337 52.4673 38.1983 52.245C37.5175 50.2383 36.8008 48.2317 36.12 46.1892C36.0985 46.0611 36.0515 45.9387 35.9818 45.8292C35.912 45.7196 35.8209 45.6253 35.7139 45.5517C35.6069 45.4782 35.4862 45.4269 35.359 45.401C35.2317 45.375 35.1006 45.375 34.9733 45.4008H25.4417C25.3093 45.3696 25.1718 45.3666 25.0382 45.3921C24.9046 45.4176 24.7779 45.471 24.6663 45.5487C24.5547 45.6265 24.4608 45.7269 24.3906 45.8435C24.3205 45.96 24.2757 46.09 24.2592 46.225C23.65 48.2317 22.9692 50.1667 22.36 52.1733C22.343 52.2999 22.3001 52.4217 22.234 52.531C22.1679 52.6403 22.08 52.7349 21.9759 52.8088C21.8717 52.8828 21.7534 52.9345 21.6284 52.9608C21.5034 52.9871 21.3743 52.9874 21.2492 52.9617H16.34C15.48 52.9617 15.4083 52.9617 15.695 52.0658L23.435 29.7417C24.1517 27.6992 24.8683 25.6567 25.5133 23.6142C25.6905 23.0084 25.7869 22.3819 25.8 21.7508C25.8 20.9983 26.0867 20.8192 26.7675 20.855H33.6117C34.1133 20.855 34.3642 20.855 34.5433 21.5358L43.3583 46.3683C44.0392 48.3033 44.72 50.2025 45.365 52.1017C45.6517 52.89 45.6158 52.9617 44.7558 52.9617ZM55.7208 52.3525C55.7208 52.9617 55.47 53.1408 54.8967 53.1408H49.7367C49.02 53.1408 48.8408 52.8542 48.8408 52.2092V29.7058C48.8408 28.9892 49.0558 28.7025 49.8083 28.7383H54.8608C55.4342 28.7383 55.7208 28.7383 55.7208 29.5267C55.6969 37.1233 55.6969 44.7319 55.7208 52.3525ZM52.1375 26.1942C51.624 26.2268 51.1096 26.1484 50.6291 25.9645C50.1487 25.7805 49.7134 25.4952 49.3531 25.128C48.9927 24.7609 48.7156 24.3204 48.5406 23.8366C48.3657 23.3527 48.297 22.8369 48.3392 22.3242C48.3437 21.8145 48.4499 21.3109 48.6514 20.8427C48.8529 20.3745 49.1457 19.9513 49.5127 19.5976C49.8797 19.2439 50.3135 18.967 50.7888 18.783C51.2641 18.5989 51.7714 18.5115 52.2808 18.5258C52.7765 18.5242 53.2672 18.6255 53.7217 18.8233C54.1763 19.021 54.5848 19.3109 54.9216 19.6746C55.2584 20.0383 55.5161 20.468 55.6783 20.9364C55.8405 21.4048 55.9038 21.9017 55.8642 22.3958C55.8935 22.8842 55.8226 23.3734 55.6557 23.8332C55.4888 24.2931 55.2295 24.7139 54.8938 25.0698C54.5581 25.4257 54.153 25.709 53.7037 25.9024C53.2543 26.0957 52.7701 26.195 52.2808 26.1942H52.1375Z" fill="white"/>
</svg>
