<svg width="82" height="82" viewBox="0 0 82 82" fill="none" xmlns="http://www.w3.org/2000/svg">
<path d="M78.2469 0H38.9248C38.9247 2.33107 39.3838 4.63932 40.2758 6.79296C41.1678 8.9466 42.4753 10.9035 44.1236 12.5518C45.772 14.2001 47.7288 15.5076 49.8824 16.3996C52.0361 17.2916 54.3443 17.7507 56.6754 17.7506H63.919V24.7444C63.9254 34.5389 71.8636 42.4774 81.6581 42.4838V3.41119C81.6581 1.52778 80.1313 0 78.2469 0Z" fill="#EBEBEB"/>
<path d="M58.7886 19.5938H19.4668C19.4729 29.3882 27.4111 37.3268 37.2059 37.3332H44.4495V44.3494C44.4619 54.1438 52.4056 62.0769 62.2001 62.0769V23.0056C62.2001 21.1215 60.6726 19.5938 58.7886 19.5938Z" fill="url(#paint0_linear_439_1218)"/>
<path d="M39.3211 39.1777H-0.000976562C-0.000976562 48.9812 7.94653 56.9283 17.7496 56.9283H25.0159V63.9218C25.0223 73.7073 32.9468 81.6424 42.7326 81.6609V42.5892C42.7326 40.7052 41.2052 39.1777 39.3211 39.1777Z" fill="url(#paint1_linear_439_1218)"/>
<defs>
<linearGradient id="paint0_linear_439_1218" x1="4208.65" y1="26.4336" x2="2546.12" y2="1761.22" gradientUnits="userSpaceOnUse">
<stop offset="0.18" stop-color="white"/>
<stop offset="1" stop-color="#EBEBEB"/>
</linearGradient>
<linearGradient id="paint1_linear_439_1218" x1="4301.78" y1="58.5076" x2="2378.64" y2="1950.62" gradientUnits="userSpaceOnUse">
<stop offset="0.18" stop-color="#FCFDFF"/>
<stop offset="1" stop-color="#EBEBEB"/>
</linearGradient>
</defs>
</svg>
