<svg width="97" height="49" viewBox="0 0 97 49" fill="none" xmlns="http://www.w3.org/2000/svg">
<path d="M4.55084 42.6318C3.10925 41.2082 1.96466 39.5124 1.18346 37.643C0.402264 35.7736 0 33.7676 0 31.7415C0 29.7155 0.402264 27.7095 1.18346 25.8401C1.96466 23.9707 3.10925 22.2749 4.55084 20.8513L21.0328 4.51481C23.4849 2.09208 26.6686 0.547238 30.0892 0.120398C33.5098 -0.306441 36.9755 0.408631 39.9478 2.15448C41.7908 3.24573 41.7747 5.7354 40.259 7.2389C38.7434 8.7424 36.2659 8.61307 34.2086 8.0149C32.8711 7.62296 31.453 7.59657 30.1017 7.93846C28.7505 8.28035 27.5156 8.97804 26.5254 9.95895L10.0435 26.2954C9.32262 27.0074 8.75028 27.8554 8.35966 28.7903C7.96903 29.7252 7.76789 30.7283 7.76789 31.7415C7.76789 32.7548 7.96903 33.7579 8.35966 34.6928C8.75028 35.6277 9.32262 36.4757 10.0435 37.1877C13.0747 40.1947 17.9975 40.1947 21.0328 37.1877L53.9926 4.51481C56.9198 1.62576 60.8671 0.00587493 64.9799 0.00587493C69.0927 0.00587493 73.04 1.62576 75.9672 4.51481L92.4492 20.8513C93.8908 22.2749 95.0353 23.9707 95.8165 25.8401C96.5977 27.7095 97 29.7155 97 31.7415C97 33.7676 96.5977 35.7736 95.8165 37.643C95.0353 39.5124 93.8908 41.2082 92.4492 42.6318C89.522 45.5209 85.5747 47.1408 81.4619 47.1408C77.3491 47.1408 73.4018 45.5209 70.4746 42.6318L64.9779 37.1877L58.1152 43.9939C55.6626 46.416 52.4786 47.9601 49.058 48.3862C45.6375 48.8123 42.172 48.0965 39.2001 46.3502C37.3531 45.267 37.3692 42.7733 38.8849 41.2698C40.4045 39.7663 42.878 39.8956 44.9393 40.4938C46.2763 40.885 47.6936 40.911 49.044 40.5691C50.3944 40.2272 51.6287 39.53 52.6185 38.5498L59.6833 31.5455C61.0941 30.1522 62.9971 29.3709 64.9799 29.3709C66.9628 29.3709 68.8658 30.1522 70.2766 31.5455L75.9672 37.1877C78.9985 40.1947 83.9212 40.1947 86.9565 37.1877C87.6774 36.4757 88.2497 35.6277 88.6404 34.6928C89.031 33.7579 89.2321 32.7548 89.2321 31.7415C89.2321 30.7283 89.031 29.7252 88.6404 28.7903C88.2497 27.8554 87.6774 27.0074 86.9565 26.2954L70.4746 9.95895C69.0109 8.51381 67.0368 7.70348 64.9799 7.70348C62.923 7.70348 60.949 8.51381 59.4853 9.95895L26.5254 42.6318C23.5982 45.5209 19.6509 47.1408 15.5381 47.1408C11.4253 47.1408 7.47803 45.5209 4.55084 42.6318Z" fill="white"/>
</svg>
