<svg width="72" height="72" viewBox="0 0 72 72" fill="none" xmlns="http://www.w3.org/2000/svg">
<path d="M53.75 0H17.9167C13.1649 0 8.6077 1.88764 5.24767 5.24767C1.88764 8.6077 0 13.1649 0 17.9167V53.75C0 58.5018 1.88764 63.059 5.24767 66.419C8.6077 69.779 13.1649 71.6667 17.9167 71.6667H53.75C58.5018 71.6667 63.059 69.779 66.419 66.419C69.779 63.059 71.6667 58.5018 71.6667 53.75V17.9167C71.6667 13.1649 69.779 8.6077 66.419 5.24767C63.059 1.88764 58.5018 0 53.75 0ZM32.25 39.4167C30.4415 40.5653 28.369 41.2314 26.23 41.3517H21.4283C20.425 41.3517 20.425 41.3517 20.425 42.3192V50.6325C20.425 51.3492 20.21 51.5642 19.4933 51.5642H14.7633C14.0825 51.5642 13.9033 51.3133 13.9033 50.6683V20.4608C13.9033 19.7442 13.9033 19.5292 14.7992 19.5292H26.015C28.0622 19.5846 30.061 20.1645 31.82 21.2133C33.3391 22.0693 34.604 23.3131 35.4853 24.8177C36.3666 26.3223 36.833 28.0338 36.8367 29.7775C37.0439 31.6518 36.7245 33.5467 35.9143 35.2494C35.1041 36.9522 33.8351 38.3953 32.25 39.4167ZM53.4633 51.2417C50.3471 52.4558 46.9352 52.6932 43.6808 51.9225C42.7038 51.7075 41.7482 51.4208 40.8142 51.0625C40.6701 50.9949 40.5435 50.8951 40.4441 50.7709C40.3447 50.6466 40.2751 50.5012 40.2408 50.3458V44.935C41.3875 45.365 42.4625 45.8667 43.5733 46.225C45.435 46.82 47.4061 46.9914 49.3425 46.7267C49.7295 46.655 50.0998 46.5356 50.4533 46.3683C50.6633 46.2764 50.8459 46.1315 50.9832 45.9479C51.1205 45.7644 51.2079 45.5483 51.2368 45.3209C51.2656 45.0934 51.2351 44.8624 51.148 44.6503C51.0609 44.4382 50.9203 44.2524 50.74 44.1108C49.9203 43.5434 49.0436 43.063 48.1242 42.6775C46.655 41.9608 45.15 41.3875 43.7525 40.5633C42.4907 39.9495 41.4605 38.945 40.815 37.6991C40.1694 36.4532 39.943 35.0323 40.1692 33.6475C40.3514 32.3147 40.9051 31.0601 41.7669 30.0271C42.6288 28.9942 43.7639 28.2247 45.0425 27.8067C47.347 27.0274 49.8062 26.8183 52.2092 27.1975C53.3558 27.1975 54.4667 27.6275 55.6133 27.8425C56.2225 27.8425 56.4375 28.3442 56.4017 28.9533V33.1458C56.4017 33.9342 56.2225 34.0058 55.5058 33.7192C53.2678 32.683 50.7939 32.2624 48.3392 32.5008C47.9914 32.5413 47.6525 32.6381 47.3358 32.7875C47.1209 32.8719 46.9317 33.011 46.787 33.191C46.6423 33.371 46.5472 33.5857 46.511 33.8138C46.4748 34.0418 46.4988 34.2754 46.5806 34.4914C46.6624 34.7073 46.7992 34.8982 46.9775 35.045C48.0143 35.7354 49.1012 36.3326 50.2383 36.8367C51.6 37.5175 53.0333 38.055 54.3592 38.8075C55.5622 39.355 56.5588 40.2726 57.2035 41.4265C57.8481 42.5804 58.107 43.9102 57.9425 45.2217C57.8292 46.53 57.3439 47.7785 56.5439 48.8199C55.7438 49.8612 54.6624 50.6518 53.4275 51.0983L53.4633 51.2417Z" fill="white"/>
</svg>
