<svg width="169" height="50" viewBox="0 0 169 50" fill="none" xmlns="http://www.w3.org/2000/svg">
<path d="M16.9165 49.0403C13.0257 49.0403 9.52879 47.9041 6.42573 45.6317C3.32266 43.357 1.18155 40.1656 0 36.06L6.95086 33.2386C7.65025 35.8165 8.87476 37.9385 10.622 39.5975C12.4123 41.2159 14.5558 42.025 17.0478 42.025C19.3631 42.025 21.33 41.4355 22.9484 40.2539C24.5643 39.0294 25.3735 37.3704 25.3735 35.2723C25.3735 33.3484 24.6526 31.7754 23.2109 30.5509C21.8122 29.2858 19.3416 28.0159 15.8018 26.7484L12.8515 25.6981C9.70304 24.6073 7.06066 23.0343 4.91716 20.9791C2.77605 18.9263 1.70669 16.2147 1.70669 12.8491C1.70669 10.5337 2.33923 8.3926 3.60671 6.42573C4.8742 4.45886 6.62385 2.90733 8.85089 1.77113C11.1257 0.589582 13.6821 0 16.5226 0C20.6306 0 23.9079 1.00492 26.3569 3.01475C28.8036 4.98161 30.4434 7.21104 31.2741 9.70304L24.6503 12.5221C24.1681 11.035 23.2515 9.72453 21.8957 8.58833C20.5423 7.45213 18.7926 6.88403 16.6515 6.88403C14.5104 6.88403 12.6963 7.43064 11.2092 8.52388C9.76749 9.61472 9.04662 11.0135 9.04662 12.7178C9.04662 14.3362 9.70066 15.6681 11.0135 16.7184C12.3263 17.7686 14.3791 18.7712 17.1767 19.7331L20.127 20.7165C24.1466 22.1153 27.2497 23.9509 29.4361 26.2233C31.6656 28.4527 32.7779 31.4484 32.7779 35.2055C32.7779 38.2656 31.9926 40.8435 30.4196 42.9416C28.8588 44.9867 26.7748 46.5726 24.3877 47.5318C22.0225 48.5294 19.4835 49.0424 16.9165 49.0403ZM51.456 48.5152C50.0738 48.5247 48.6999 48.3028 47.3909 47.8588C46.2394 47.4236 45.1908 46.7538 44.3118 45.8919C42.4308 44.0563 41.4927 41.4999 41.4927 38.2226V21.8313H35.7879V15.4724H41.4927V5.76931H48.7014V15.4724H56.6357V21.8313H48.7038V36.6496C48.7038 38.4398 49.0523 39.7073 49.7541 40.452C50.4081 41.3257 51.4774 41.7625 52.9645 41.7625C54.232 41.7625 55.478 41.3901 56.7025 40.6478V47.6631C55.1725 48.2312 53.4228 48.5152 51.456 48.5152ZM67.6945 9.96561C67.0529 9.97723 66.4154 9.86148 65.8189 9.62507C65.2223 9.38866 64.6786 9.03628 64.2191 8.58833C63.7716 8.12867 63.4196 7.58483 63.1836 6.98829C62.9476 6.39174 62.8323 5.75432 62.8442 5.11289C62.8442 3.75948 63.3025 2.62328 64.2191 1.7043C64.6692 1.23928 65.2097 0.87143 65.8075 0.623463C66.4052 0.375495 67.0475 0.252669 67.6945 0.262567C69.0503 0.262567 70.1865 0.742348 71.1031 1.7043C72.0651 2.62328 72.5472 3.75709 72.5472 5.11289C72.5472 6.46869 72.0651 7.62638 71.1031 8.58833C70.1865 9.50731 69.0503 9.96561 67.6945 9.96561ZM64.0902 15.4724H71.2989V47.9901H64.0902V15.4724ZM93.0084 48.5152C91.6262 48.5246 90.2523 48.3027 88.9434 47.8588C87.7918 47.4236 86.7432 46.7538 85.8642 45.8919C83.9832 44.0563 83.0451 41.4999 83.0451 38.2226V21.8313H77.3403V15.4724H83.0451V5.76931H90.2538V15.4724H98.1881V21.8313H90.2562V36.6496C90.2562 38.4398 90.6047 39.7073 91.3065 40.452C91.9605 41.3257 93.0299 41.7625 94.5169 41.7625C95.7844 41.7625 97.0304 41.3901 98.2549 40.6478V47.6631C96.7249 48.2312 94.9752 48.5152 93.0084 48.5152ZM118.597 49.0403C115.36 49.0403 112.453 48.2956 109.875 46.8109C107.329 45.3588 105.24 43.2242 103.843 40.6478C102.401 37.9815 101.68 35.0097 101.68 31.7324C101.68 28.4097 102.401 25.438 103.843 22.8147C105.24 20.2383 107.329 18.1036 109.875 16.6515C112.453 15.1668 115.36 14.4221 118.594 14.4221C122.18 14.4221 125.216 15.2766 127.708 16.9809C130.182 18.5683 132.105 20.8808 133.215 23.6024L126.593 26.3546C125.02 22.8147 122.265 21.0459 118.334 21.0459C116.67 21.0459 115.121 21.5042 113.68 22.4208C112.235 23.2969 111.078 24.5429 110.204 26.1588C109.328 27.7748 108.891 29.6343 108.891 31.7324C108.891 33.8306 109.328 35.6876 110.204 37.3036C111.014 38.85 112.21 40.1602 113.677 41.106C115.121 41.9797 116.673 42.4189 118.332 42.4189C120.344 42.4189 122.091 41.9582 123.578 41.0416C125.063 40.0797 126.199 38.7262 126.987 36.9766L133.477 39.7956C132.239 42.5143 130.262 44.8308 127.772 46.4815C125.24 48.1882 122.182 49.0403 118.597 49.0403ZM139.368 1.04788H146.577V14.6847L146.185 19.7999H146.579C147.496 18.2245 148.873 16.9356 150.709 15.933C152.536 14.9285 154.591 14.4083 156.676 14.4221C160.784 14.4221 163.866 15.6251 165.921 18.0288C167.974 20.3895 169 23.6239 169 27.7318V47.9901H161.791V28.7153C161.791 26.1373 161.156 24.2134 159.889 22.946C158.619 21.6809 156.939 21.0459 154.84 21.0459C153.222 21.0459 151.78 21.5042 150.513 22.4208C149.288 23.3398 148.326 24.5643 147.627 26.0944C146.929 27.6158 146.571 29.2709 146.577 30.9447V47.9901H139.368V1.04788Z" fill="white"/>
</svg>
