<svg width="48" height="45" viewBox="0 0 48 45" fill="none" xmlns="http://www.w3.org/2000/svg">
<path d="M47.1552 14.5994L46.9413 13.7911C46.6579 13.0061 46.2833 12.2531 45.8242 11.546C44.7806 9.89996 43.2862 8.55036 41.4985 7.63947L29.0204 1.26327C27.3704 0.433806 25.5299 0 23.6608 0C21.7917 0 19.9512 0.433806 18.3012 1.26327L5.8231 7.63947C4.03542 8.55036 2.541 9.89996 1.49737 11.546C1.03261 12.2471 0.665165 13.0016 0.404052 13.7911V14.1055C0.137861 15.0045 0.00193853 15.9335 0 16.867V33.9749C0.00627973 36.8015 1.19774 39.5106 3.31361 41.5093C5.42948 43.508 8.29741 44.6334 11.2897 44.6394H36.2458C37.7284 44.6394 39.1965 44.3635 40.5662 43.8276C41.9359 43.2916 43.1805 42.5061 44.2288 41.5158C45.2772 40.5255 46.1088 39.3499 46.6761 38.056C47.2435 36.7622 47.5355 35.3754 47.5355 33.9749V16.8445C47.4929 16.0856 47.3655 15.333 47.1552 14.5994ZM27.5231 22.1206C26.345 22.7502 25.0144 23.0811 23.6608 23.0811C22.3072 23.0811 20.9767 22.7502 19.7985 22.1206L4.2782 13.634C4.3495 13.4619 4.43665 13.2972 4.53964 13.1401C5.25697 12.0128 6.28349 11.0897 7.51061 10.4683L19.9887 4.09215C21.1115 3.51429 22.3703 3.21315 23.6489 3.21654C24.9351 3.21323 26.2016 3.51425 27.3329 4.09215L39.811 10.4683C41.2792 11.2181 42.4478 12.4008 43.1385 13.836L27.5231 22.1206Z" fill="#F9F6E5"/>
</svg>
