<svg width="50" height="50" viewBox="0 0 50 50" fill="none" xmlns="http://www.w3.org/2000/svg">
<path fill-rule="evenodd" clip-rule="evenodd" d="M10.6605 0C7.8339 -2.08429e-07 5.12297 1.1226 3.12385 3.12095C1.12473 5.11931 0.0010855 7.82981 0 10.6565V39.0846C0 41.9119 1.12316 44.6235 3.1224 46.6227C5.12164 48.622 7.83319 49.7451 10.6605 49.7451H39.0887C41.9153 49.744 44.6258 48.6204 46.6242 46.6213C48.6225 44.6221 49.7451 41.9112 49.7451 39.0846V10.6565C49.744 7.83052 48.6209 5.12064 46.6227 3.1224C44.6245 1.12416 41.9146 0.00108502 39.0887 0H10.6605ZM42.155 10.6728C42.155 11.4872 41.8315 12.2681 41.2557 12.844C40.6799 13.4198 39.8989 13.7433 39.0846 13.7433C38.2702 13.7433 37.4893 13.4198 36.9134 12.844C36.3376 12.2681 36.0141 11.4872 36.0141 10.6728C36.0141 9.8585 36.3376 9.07752 36.9134 8.5017C37.4893 7.92588 38.2702 7.60239 39.0846 7.60239C39.8989 7.60239 40.6799 7.92588 41.2557 8.5017C41.8315 9.07752 42.155 9.8585 42.155 10.6728ZM24.8787 16.3552C22.6203 16.3552 20.4544 17.2523 18.8574 18.8493C17.2605 20.4462 16.3634 22.6121 16.3634 24.8705C16.3634 27.1289 17.2605 29.2948 18.8574 30.8918C20.4544 32.4887 22.6203 33.3858 24.8787 33.3858C27.1371 33.3858 29.303 32.4887 30.8999 30.8918C32.4969 29.2948 33.394 27.1289 33.394 24.8705C33.394 22.6121 32.4969 20.4462 30.8999 18.8493C29.303 17.2523 27.1371 16.3552 24.8787 16.3552ZM12.2654 24.8705C12.2654 21.5263 13.5938 18.3191 15.9585 15.9544C18.3232 13.5897 21.5304 12.2613 24.8746 12.2613C28.2188 12.2613 31.426 13.5897 33.7907 15.9544C36.1554 18.3191 37.4839 21.5263 37.4839 24.8705C37.4839 28.2147 36.1554 31.4219 33.7907 33.7866C31.426 36.1513 28.2188 37.4798 24.8746 37.4798C21.5304 37.4798 18.3232 36.1513 15.9585 33.7866C13.5938 31.4219 12.2654 28.2147 12.2654 24.8705Z" fill="#F9F6E5"/>
</svg>
