<svg width="49" height="49" viewBox="0 0 49 49" fill="none" xmlns="http://www.w3.org/2000/svg">
<path d="M43.4253 0C44.865 0 46.2457 0.571894 47.2636 1.58987C48.2816 2.60785 48.8535 3.98853 48.8535 5.42817V43.4253C48.8535 44.865 48.2816 46.2457 47.2636 47.2636C46.2457 48.2816 44.865 48.8535 43.4253 48.8535H5.42817C3.98853 48.8535 2.60785 48.2816 1.58987 47.2636C0.571894 46.2457 0 44.865 0 43.4253V5.42817C0 3.98853 0.571894 2.60785 1.58987 1.58987C2.60785 0.571894 3.98853 0 5.42817 0H43.4253ZM42.0683 42.0683V27.6837C42.0683 25.337 41.1361 23.0865 39.4768 21.4272C37.8175 19.7679 35.567 18.8357 33.2204 18.8357C30.9134 18.8357 28.2265 20.2471 26.9237 22.3641V19.3514H19.3514V42.0683H26.9237V28.6879C26.9237 26.598 28.6064 24.8882 30.6963 24.8882C31.704 24.8882 32.6705 25.2885 33.3831 26.0011C34.0957 26.7136 34.496 27.6801 34.496 28.6879V42.0683H42.0683ZM10.5306 15.0903C11.7399 15.0903 12.8997 14.6099 13.7548 13.7548C14.6099 12.8997 15.0903 11.7399 15.0903 10.5306C15.0903 8.00655 13.0547 5.94384 10.5306 5.94384C9.31415 5.94384 8.14748 6.42709 7.28729 7.28729C6.42709 8.14748 5.94384 9.31415 5.94384 10.5306C5.94384 13.0547 8.00655 15.0903 10.5306 15.0903ZM14.3032 42.0683V19.3514H6.78521V42.0683H14.3032Z" fill="#F9F6E5"/>
</svg>
