<svg width="69" height="69" viewBox="0 0 69 69" fill="none" xmlns="http://www.w3.org/2000/svg">
<path fill-rule="evenodd" clip-rule="evenodd" d="M34.5 69C39.0306 69 43.5168 68.1076 47.7026 66.3738C51.8883 64.6401 55.6916 62.0988 58.8952 58.8952C62.0988 55.6916 64.6401 51.8883 66.3738 47.7026C68.1076 43.5168 69 39.0306 69 34.5C69 29.9694 68.1076 25.4832 66.3738 21.2974C64.6401 17.1117 62.0988 13.3084 58.8952 10.1048C55.6916 6.90119 51.8883 4.35994 47.7026 2.62616C43.5168 0.892368 39.0306 -6.75113e-08 34.5 0C25.35 1.36345e-07 16.5748 3.63481 10.1048 10.1048C3.63481 16.5748 0 25.35 0 34.5C0 43.65 3.63481 52.4252 10.1048 58.8952C16.5748 65.3652 25.35 69 34.5 69ZM29.8348 19.1283L51.4702 31.1497C52.0675 31.4818 52.5651 31.9675 52.9116 32.5565C53.2581 33.1456 53.4408 33.8166 53.4408 34.5C53.4408 35.1834 53.2581 35.8544 52.9116 36.4435C52.5651 37.0325 52.0675 37.5182 51.4702 37.8503L29.8348 49.8717C29.1343 50.2611 28.3442 50.4606 27.5427 50.4507C26.7413 50.4407 25.9564 50.2215 25.2658 49.8148C24.5751 49.4081 24.0027 48.828 23.6053 48.132C23.2079 47.4359 22.9992 46.6482 23 45.8467V23.1533C22.9992 22.3518 23.2079 21.5641 23.6053 20.868C24.0027 20.172 24.5751 19.5919 25.2658 19.1852C25.9564 18.7785 26.7413 18.5593 27.5427 18.5493C28.3442 18.5393 29.1343 18.7389 29.8348 19.1283Z" fill="#C5E077"/>
</svg>
