<svg width="47" height="47" viewBox="0 0 47 47" fill="none" xmlns="http://www.w3.org/2000/svg">
<mask id="mask0_404_1691" style="mask-type:luminance" maskUnits="userSpaceOnUse" x="0" y="0" width="47" height="47">
<path fill-rule="evenodd" clip-rule="evenodd" d="M0.233333 45.1058C0.189366 45.264 0.187901 45.4309 0.229088 45.5899C0.270275 45.7488 0.352656 45.894 0.467917 46.011C0.583177 46.1279 0.727239 46.2123 0.885564 46.2558C1.04389 46.2992 1.21087 46.3001 1.36967 46.2584L12.1193 43.4491C15.5299 45.2964 19.3472 46.2644 23.226 46.2654H23.2353C36.036 46.2654 46.4707 35.8914 46.4707 23.1374C46.4785 20.0961 45.8814 17.0835 44.7141 14.275C43.5469 11.4665 41.8327 8.91824 39.6713 6.77844C37.5137 4.62107 34.9508 2.91158 32.1301 1.7483C29.3094 0.585014 26.2865 -0.00910834 23.2353 0.000105548C10.4347 0.000105548 0 10.3741 0 23.1258C0 27.1834 1.06867 31.1688 3.10333 34.6851L0.233333 45.1058ZM15.8713 12.0634C16.2983 12.0751 16.772 12.0984 17.2223 13.0971C17.521 13.7621 18.0227 14.9871 18.4333 15.9858C18.753 16.7628 19.0143 17.4021 19.0797 17.5328C19.2313 17.8314 19.3223 18.1744 19.1263 18.5781L19.061 18.7134C18.9023 19.0401 18.7903 19.2734 18.5243 19.5768L18.1907 19.9734C17.9923 20.2161 17.794 20.4541 17.626 20.6221C17.325 20.9208 17.0147 21.2428 17.36 21.8401C17.7053 22.4374 18.9187 24.4021 20.7083 25.9864C22.0173 27.167 23.5192 28.1141 25.1487 28.7864C25.312 28.8564 25.4442 28.9155 25.5453 28.9638C26.145 29.2624 26.502 29.2158 26.8473 28.8144C27.195 28.4108 28.3477 27.0668 28.7537 26.4694C29.1457 25.8721 29.547 25.9654 30.1023 26.1708C30.6577 26.3784 33.6117 27.8274 34.2113 28.1238L34.545 28.2871C34.9627 28.4854 35.245 28.6231 35.3663 28.8238C35.5157 29.0781 35.5157 30.2704 35.021 31.6751C34.5123 33.0751 32.0647 34.4191 30.9563 34.5218L30.6413 34.5591C29.624 34.6804 28.336 34.8391 23.744 33.0308C18.0833 30.8048 14.3477 25.2841 13.594 24.1664L13.4703 23.9891L13.4587 23.9704C13.1133 23.5108 11.011 20.6991 11.011 17.7964C11.011 15.0198 12.3807 13.5731 13.0037 12.9151L13.1133 12.7984C13.315 12.5706 13.5614 12.3868 13.8372 12.2583C14.1129 12.1299 14.4122 12.0596 14.7163 12.0518C15.12 12.0518 15.526 12.0518 15.8713 12.0634Z" fill="white"/>
</mask>
<g mask="url(#mask0_404_1691)">
<path fill-rule="evenodd" clip-rule="evenodd" d="M0.233333 45.1058C0.189366 45.264 0.187901 45.4309 0.229088 45.5899C0.270275 45.7488 0.352656 45.894 0.467917 46.011C0.583177 46.1279 0.727239 46.2123 0.885564 46.2558C1.04389 46.2992 1.21087 46.3001 1.36967 46.2584L12.1193 43.4491C15.5299 45.2964 19.3472 46.2644 23.226 46.2654H23.2353C36.036 46.2654 46.4707 35.8914 46.4707 23.1374C46.4785 20.0961 45.8814 17.0835 44.7141 14.275C43.5469 11.4665 41.8327 8.91824 39.6713 6.77844C37.5137 4.62107 34.9508 2.91158 32.1301 1.7483C29.3094 0.585014 26.2865 -0.00910834 23.2353 0.000105548C10.4347 0.000105548 0 10.3741 0 23.1258C0 27.1834 1.06867 31.1688 3.10333 34.6851L0.233333 45.1058ZM15.8713 12.0634C16.2983 12.0751 16.772 12.0984 17.2223 13.0971C17.521 13.7621 18.0227 14.9871 18.4333 15.9858C18.753 16.7628 19.0143 17.4021 19.0797 17.5328C19.2313 17.8314 19.3223 18.1744 19.1263 18.5781L19.061 18.7134C18.9023 19.0401 18.7903 19.2734 18.5243 19.5768L18.1907 19.9734C17.9923 20.2161 17.794 20.4541 17.626 20.6221C17.325 20.9208 17.0147 21.2428 17.36 21.8401C17.7053 22.4374 18.9187 24.4021 20.7083 25.9864C22.0173 27.167 23.5192 28.1141 25.1487 28.7864C25.312 28.8564 25.4442 28.9155 25.5453 28.9638C26.145 29.2624 26.502 29.2158 26.8473 28.8144C27.195 28.4108 28.3477 27.0668 28.7537 26.4694C29.1457 25.8721 29.547 25.9654 30.1023 26.1708C30.6577 26.3784 33.6117 27.8274 34.2113 28.1238L34.545 28.2871C34.9627 28.4854 35.245 28.6231 35.3663 28.8238C35.5157 29.0781 35.5157 30.2704 35.021 31.6751C34.5123 33.0751 32.0647 34.4191 30.9563 34.5218L30.6413 34.5591C29.624 34.6804 28.336 34.8391 23.744 33.0308C18.0833 30.8048 14.3477 25.2841 13.594 24.1664L13.4703 23.9891L13.4587 23.9704C13.1133 23.5108 11.011 20.6991 11.011 17.7964C11.011 15.0198 12.3807 13.5731 13.0037 12.9151L13.1133 12.7984C13.315 12.5706 13.5614 12.3868 13.8372 12.2583C14.1129 12.1299 14.4122 12.0596 14.7163 12.0518C15.12 12.0518 15.526 12.0518 15.8713 12.0634Z" fill="white" stroke="white" stroke-width="4.66667" stroke-linejoin="round"/>
</g>
</svg>
